REM MD5 f08f42155ef8609483726a4ad34e8329
FILE "Simple 1500 Series Vol. 16 - The Pachi-Slot (Japan).bin" BINARY
  TRACK 01 MODE2/2352
    INDEX 01 00:00:00
  TRACK 02 AUDIO
    INDEX 00 08:41:58
    INDEX 01 08:43:58
  TRACK 03 AUDIO
    INDEX 00 11:55:15
    INDEX 01 11:57:15
  TRACK 04 AUDIO
    INDEX 00 15:07:59
    INDEX 01 15:09:59
REM LEADOUT 18:56:41
